<?xml version="1.0" encoding="UTF-8"?>
<svg width="389px" height="140px" viewBox="0 0 389 140" version="1.1" xmlns="http://www.w3.org/2000/svg" xmlns:xlink="http://www.w3.org/1999/xlink">
    <title>logo</title>
    <defs>
        <path d="M37.4981982,50.3399672 C31.6807207,50.3399672 26.9145946,52.3874553 23.0596396,56.4824316 C19.2046847,60.5774079 17.3122523,65.8726359 17.3122523,72.2975125 C17.3122523,78.7929921 19.2747748,84.0882201 23.1297297,88.3244025 C27.0547748,92.4899818 31.8209009,94.608073 37.5682883,94.608073 C43.4558559,94.608073 48.3621622,92.5605848 52.2171171,88.4656086 C56.0720721,84.3706323 58.0345946,78.9341982 58.0345946,72.2975125 C58.0345946,65.8020329 56.0720721,60.5068049 52.2171171,56.4118286 C48.3621622,52.3168523 43.4558559,50.3399672 37.4981982,50.3399672 Z M58.5252252,34.8779015 L77.1691892,34.8779015 L77.1691892,109.928933 L58.5252252,109.928933 L58.5252252,102.021392 C54.8805405,105.480941 51.2358559,108.022651 47.5210811,109.575917 C43.8763964,111.129184 39.8812613,111.905818 35.6057658,111.905818 C26.0034234,111.905818 17.6627027,108.163857 10.6536937,100.609331 C3.64468468,93.1254092 0.14018018,83.7352049 0.14018018,72.5799247 C0.14018018,61.0010262 3.57459459,51.4696158 10.3733333,44.1268997 C17.1720721,36.7841836 25.4427027,33.0422225 35.1852252,33.0422225 C39.670991,33.0422225 43.8763964,33.889459 47.8014414,35.5839319 C51.7264865,37.2784049 55.3711712,39.8201143 58.6654054,43.2090602 L58.6654054,34.8779015 L58.5252252,34.8779015 Z M322.484505,34.8779015 L341.128468,34.8779015 L341.128468,42.5030298 C345.403964,38.9022748 349.188829,36.4311684 352.693333,35.0191076 C356.127748,33.6070468 359.632252,32.9010164 363.276937,32.9010164 C370.636396,32.9010164 376.944505,35.5133289 382.131171,40.6673508 C386.476757,45.1153423 388.64955,51.6108219 388.64955,60.2243927 L388.64955,109.787726 L370.075676,109.787726 L370.075676,76.8867101 C370.075676,67.920124 369.655135,61.9894687 368.884144,59.0241411 C368.113153,56.0588134 366.711351,53.8701192 364.678739,52.3168523 C362.716216,50.7635854 360.263063,49.986952 357.319279,49.986952 C353.534414,49.986952 350.31027,51.2578067 347.576757,53.7995161 C344.843243,56.3412256 342.950811,59.8713775 341.899459,64.3899721 C341.338739,66.7198724 341.058378,71.8032912 341.058378,79.6402286 L341.058378,109.787726 L322.414414,109.787726 L322.414414,34.8779015 L322.484505,34.8779015 Z M172.071171,50.3399672 C166.253694,50.3399672 161.487568,52.3874553 157.632613,56.4824316 C153.777658,60.5774079 151.885225,65.8726359 151.885225,72.2975125 C151.885225,78.7929921 153.847748,84.0882201 157.702703,88.3244025 C161.627748,92.4899818 166.393874,94.608073 172.141261,94.608073 C178.028829,94.608073 182.935135,92.5605848 186.79009,88.4656086 C190.645045,84.3706323 192.607568,78.9341982 192.607568,72.2975125 C192.607568,65.8020329 190.645045,60.5068049 186.79009,56.4118286 C182.935135,52.3168523 178.028829,50.3399672 172.071171,50.3399672 Z M193.098198,0.282412158 L211.742162,0.282412158 L211.742162,109.928933 L193.098198,109.928933 L193.098198,102.021392 C189.453514,105.480941 185.808829,108.022651 182.094054,109.575917 C178.449369,111.129184 174.454234,111.905818 170.178739,111.905818 C160.576396,111.905818 152.235676,108.163857 145.226667,100.609331 C138.217658,93.1254092 134.713153,83.7352049 134.713153,72.5799247 C134.713153,61.0010262 138.147568,51.4696158 144.946306,44.1268997 C151.745045,36.7135806 160.015676,33.0422225 169.758198,33.0422225 C174.243964,33.0422225 178.449369,33.889459 182.374414,35.5839319 C186.299459,37.2784049 189.944144,39.8201143 193.238378,43.2090602 L193.238378,0.282412158 L193.098198,0.282412158 Z M287.369369,63.1191174 C286.107748,58.953538 283.724685,55.5645921 280.08,52.8816766 C276.435315,50.2693642 272.22991,48.9279064 267.463784,48.9279064 C262.277117,48.9279064 257.721261,50.4105702 253.796216,53.3052949 C251.343063,55.1409739 249.03009,58.3887137 246.927387,63.0485143 L287.369369,63.0485143 L287.369369,63.1191174 Z M306.083423,77.9457557 L246.086306,77.9457557 C246.927387,83.3115867 249.24036,87.547769 253.025225,90.6543028 C256.81009,93.8314396 261.576216,95.3847064 267.463784,95.3847064 C274.472793,95.3847064 280.43045,92.9136 285.476937,88.0419903 L301.247207,95.4553095 C297.322162,101.03295 292.626126,105.198529 287.159099,107.881444 C281.692072,110.56436 275.173694,111.905818 267.674054,111.905818 C255.969009,111.905818 246.506847,108.163857 239.147387,100.750537 C231.787928,93.3372183 228.143243,84.0176171 228.143243,72.8623368 C228.143243,61.4246444 231.787928,51.8932341 239.147387,44.3387088 C246.436757,36.7841836 255.688649,32.9716195 266.692793,32.9716195 C278.397838,32.9716195 287.93009,36.7841836 295.28955,44.3387088 C302.649009,51.8932341 306.293694,61.9188657 306.293694,74.2743976 L306.083423,77.9457557 Z M97.4953153,34.8779015 L116.279459,34.8779015 L116.279459,109.928933 L97.4953153,109.928933 L97.4953153,34.8779015 Z" id="path-1"></path>
        <rect id="path-3" x="0.21027027" y="0.635427356" width="389.700901" height="136.969897"></rect>
    </defs>
    <g id="logo" stroke="none" stroke-width="1" fill="none" fill-rule="evenodd">
        <g id="Group-3" transform="translate(0.000000, 0.242641)">
            <g id="aiden-copy" transform="translate(0.000000, 26.757359)">
                <g id="Clipped" transform="translate(0.000000, 0.440729)">
                    <mask id="mask-2" fill="white">
                        <use xlink:href="#path-1"></use>
                    </mask>
                    <g id="SVGID_1_"></g>
                    <g mask="url(#mask-2)">
                        <g transform="translate(-0.700901, -25.417094)">
                            <mask id="mask-4" fill="white">
                                <use xlink:href="#path-3"></use>
                            </mask>
                            <g id="SVGID_3_" stroke="none" fill="none"></g>
                            <rect id="Rectangle-path" stroke="none" fill="#fff" fill-rule="nonzero" mask="url(#mask-4)" x="-2.73351351" y="22.1693544" width="395.448288" height="118.754313"></rect>
                        </g>
                    </g>
                </g>
            </g>
            <g id="Group-2" transform="translate(77.242641, 0.000000)">
                <path d="M10.8786797,23.1189752 L33.1189752,0.878679656 C34.2905481,-0.292893219 36.190043,-0.292893219 37.3616159,0.878679656 L59.636039,23.1531027 C60.8076118,24.3246756 60.8076118,26.2241705 59.636039,27.3957434 L37.3957434,49.636039 C36.2241705,50.8076118 34.3246756,50.8076118 33.1531027,49.636039 L10.8786797,27.3616159 C9.70710678,26.190043 9.70710678,24.2905481 10.8786797,23.1189752 Z" id="Rectangle-path-Copy" fill="#008DFF"></path>
                <path d="M0.878679656,23.1189752 L23.1189752,0.878679656 C24.2905481,-0.292893219 26.190043,-0.292893219 27.3616159,0.878679656 L49.636039,23.1531027 C50.8076118,24.3246756 50.8076118,26.2241705 49.636039,27.3957434 L27.3957434,49.636039 C26.2241705,50.8076118 24.3246756,50.8076118 23.1531027,49.636039 L0.878679656,27.3616159 C-0.292893219,26.190043 -0.292893219,24.2905481 0.878679656,23.1189752 Z" id="Rectangle-path-Copy-2" fill="#3EE9B5"></path>
                <polygon id="Rectangle-path" fill="#150D3B" points="8.75735931 25.2435151 30.2435151 3.75735931 51.7573593 25.2712035 30.2712035 46.7573593"></polygon>
            </g>
        </g>
        <g id="Group" transform="translate(77.000000, 0.000000)"></g>
    </g>
</svg>
