<?xml version="1.0" standalone="no"?>
<!DOCTYPE svg PUBLIC "-//W3C//DTD SVG 20010904//EN"
 "http://www.w3.org/TR/2001/REC-SVG-20010904/DTD/svg10.dtd">
<svg version="1.0" xmlns="http://www.w3.org/2000/svg"
 width="260.000000pt" height="260.000000pt" viewBox="0 0 260.000000 260.000000"
 preserveAspectRatio="xMidYMid meet">
<metadata>
Created by potrace 1.11, written by Peter Selinger 2001-2013
</metadata>
<g transform="translate(0.000000,260.000000) scale(0.100000,-0.100000)"
fill="#000000" stroke="none">
<path d="M856 2341 c-3 -4 -18 -7 -33 -5 -23 2 -32 -3 -47 -29 -11 -18 -20
-34 -20 -37 -1 -3 -4 -10 -8 -15 -7 -12 -23 -87 -20 -97 1 -5 -2 -8 -8 -8 -5
0 -9 -4 -7 -9 3 -13 -44 -51 -64 -51 -10 0 -21 -5 -24 -10 -4 -6 -11 -8 -16
-5 -5 4 -9 1 -9 -6 0 -7 -3 -10 -6 -7 -3 3 -29 -3 -57 -14 -29 -11 -60 -21
-69 -21 -10 -1 -18 -4 -18 -8 0 -4 -22 -12 -50 -19 -28 -7 -50 -17 -50 -23 0
-6 -3 -7 -7 -4 -3 4 -12 -1 -19 -11 -17 -21 -18 -56 -2 -46 7 5 8 3 3 -7 -13
-20 -13 -49 -1 -49 6 0 6 -4 -2 -12 -7 -7 -8 -17 -2 -28 5 -9 9 -25 9 -36 -2
-74 6 -137 18 -150 8 -8 11 -14 6 -15 -4 0 1 -4 11 -8 15 -6 20 -19 22 -52 7
-131 18 -310 29 -439 3 -36 7 -98 10 -139 4 -72 5 -75 46 -112 23 -21 46 -36
50 -33 4 2 13 -5 19 -16 6 -11 15 -18 21 -15 5 4 9 1 9 -4 0 -6 4 -11 10 -11
13 0 45 -26 99 -80 24 -25 41 -38 36 -30 -8 16 -3 12 57 -45 15 -14 31 -25 36
-25 4 0 18 -9 30 -20 12 -12 22 -18 22 -15 0 4 7 -1 16 -10 9 -9 29 -19 45
-22 16 -3 29 -10 29 -16 0 -6 3 -8 6 -4 4 3 12 1 20 -6 33 -30 44 -37 44 -31
0 4 9 -3 20 -16 11 -13 20 -20 20 -15 0 4 16 -7 36 -25 20 -17 46 -36 58 -41
11 -5 29 -15 38 -21 14 -10 22 -10 38 0 12 7 25 10 29 7 5 -3 12 2 15 10 3 8
9 14 13 13 16 -3 63 14 63 24 0 5 5 6 10 3 6 -3 10 -1 10 4 0 6 4 11 10 11 5
0 43 16 84 35 41 19 83 35 94 35 10 0 40 11 68 24 27 13 59 27 72 30 12 4 20
11 17 16 -3 5 4 7 15 5 11 -2 20 0 20 5 0 5 13 11 30 15 16 4 34 14 40 23 5 9
10 14 10 9 0 -8 49 21 65 39 6 6 31 19 57 29 28 10 45 22 41 28 -4 6 0 8 10 4
9 -3 22 -1 29 6 7 7 22 14 33 15 11 2 22 8 23 13 2 5 8 7 13 3 5 -3 9 -1 9 4
0 6 10 12 23 15 49 13 60 31 63 100 1 36 5 70 8 76 4 5 2 13 -4 16 -8 5 -8 11
0 20 8 9 8 15 0 20 -6 4 -7 13 -2 23 5 9 8 51 7 92 -1 41 2 80 7 87 5 7 5 14
-1 17 -6 4 -8 13 -5 21 3 7 6 62 8 122 1 59 5 114 10 122 6 10 5 12 -2 7 -24
-15 -11 9 26 48 20 21 32 36 27 33 -6 -3 -10 14 -10 44 0 27 3 49 7 49 4 0 3
12 -2 26 -7 16 -7 23 0 19 13 -8 8 38 -5 47 -7 5 -6 8 0 8 6 0 10 22 9 53 -2
68 -2 67 -19 67 -7 0 -19 8 -24 18 -8 13 -10 14 -11 2 0 -9 -3 -11 -8 -5 -11
17 -99 65 -116 65 -9 0 -16 5 -16 10 0 6 -11 10 -24 10 -13 0 -26 7 -30 15 -3
8 -12 15 -20 15 -8 0 -25 10 -38 23 -13 12 -58 40 -101 61 -42 22 -77 44 -78
50 0 6 -2 20 -5 31 -2 11 -5 30 -6 43 -1 12 -6 22 -10 22 -4 0 -7 5 -5 11 1 6
-7 16 -18 22 -11 7 -22 14 -25 17 -11 12 -82 11 -97 -2 -13 -10 -15 -10 -9 0
5 8 -5 7 -28 -5 -20 -9 -36 -21 -36 -25 0 -5 -4 -6 -10 -3 -5 3 -10 2 -10 -3
0 -6 -29 5 -64 23 -56 30 -133 45 -121 24 3 -4 -4 -5 -15 -2 -11 3 -20 1 -20
-5 0 -5 -17 -13 -37 -17 -21 -4 -52 -13 -70 -22 -17 -8 -37 -15 -45 -17 -7 -1
-17 -4 -23 -8 -5 -3 -25 -9 -43 -13 -24 -5 -33 -3 -38 9 -3 9 -10 14 -14 11
-4 -3 -10 2 -13 10 -8 18 -78 54 -115 58 -15 2 -33 6 -39 10 -7 4 -14 3 -17
-2z"/>
</g>
</svg>
